<?xml version="1.0" encoding="UTF-8"?>
<svg version="1.1" xmlns="http://www.w3.org/2000/svg" width="180" height="180">
<path d="M0 0 C59.4 0 118.8 0 180 0 C180 59.4 180 118.8 180 180 C120.6 180 61.2 180 0 180 C0 120.6 0 61.2 0 0 Z " fill="#FDFDFD" transform="translate(0,0)"/>
<path d="M0 0 C59.4 0 118.8 0 180 0 C180 59.4 180 118.8 180 180 C120.6 180 61.2 180 0 180 C0 120.6 0 61.2 0 0 Z M11 12 C7.67496147 58.33830298 7.50472124 105.66251408 9.9375 152.0625 C9.98097565 152.90096466 10.02445129 153.73942932 10.06924438 154.603302 C9.76667915 162.3903356 9.76667915 162.3903356 12 169 C35.21622864 172.30092418 59.45110783 171.16292047 82.85961914 171.13037109 C86.97668214 171.12468861 91.09368027 171.12805934 95.21074104 171.13380814 C111.02602109 171.15255642 126.82890919 171.07235435 142.63671875 170.5546875 C143.81998245 170.51594513 145.00324615 170.47720276 146.22236633 170.43728638 C153.5037487 170.16787415 160.74475296 169.67075194 168 169 C173.76439773 118.07182585 174.07554921 62.90484432 168 12 C151.1816627 9.74296102 134.22044925 9.84883972 117.28125 9.8671875 C115.04463694 9.86651138 112.80802395 9.86553882 110.57141113 9.86428833 C105.91560151 9.86282582 101.25981125 9.86491887 96.60400391 9.86962891 C90.6908743 9.87532527 84.77779012 9.87203844 78.86466217 9.86605644 C74.25563221 9.86241146 69.6466127 9.86360734 65.0375824 9.86618423 C62.85949193 9.86684266 60.68140045 9.86606389 58.50331116 9.86370468 C42.63114255 9.85027779 26.75498477 9.88566407 11 12 Z " fill="#608FD0" transform="translate(0,0)"/>
<path d="M0 0 C8.25 0 16.5 0 25 0 C25.11569633 4.37589237 25.21492611 8.74634686 25.2746582 13.12255859 C25.29958838 14.60646679 25.33354625 16.09025495 25.37719727 17.57373047 C25.66758019 27.70638643 25.32811595 36.35724683 17.99072266 44.12792969 C8.30183947 53.22061166 -1.64501894 53.25785484 -14.20874023 53.35009766 C-15.85243942 53.36661074 -17.49606817 53.39383949 -19.1394043 53.43212891 C-30.4882731 53.69449094 -38.925651 53.28204261 -47.875 45.5 C-48.57625 44.675 -49.2775 43.85 -50 43 C-50.721875 42.175 -51.44375 41.35 -52.1875 40.5 C-55.68006084 35.6826747 -56 33.12870273 -56 27 C-37.52 27 -19.04 27 0 27 C0 18.09 0 9.18 0 0 Z " fill="#5B8ED2" transform="translate(105,105)"/>
<path d="M0 0 C4.69720516 -0.11537895 9.38941583 -0.21471667 14.08691406 -0.2746582 C15.68148536 -0.29966413 17.27594365 -0.33368099 18.87011719 -0.37719727 C34.96348858 -0.80521246 34.96348858 -0.80521246 40.59765625 3.66967773 C41.06042969 4.10868408 41.52320313 4.54769043 42 5 C42.71671875 5.62261719 43.4334375 6.24523438 44.171875 6.88671875 C44.95304687 7.77810547 44.95304687 7.77810547 45.75 8.6875 C46.28109375 9.26886719 46.8121875 9.85023437 47.359375 10.44921875 C53.06369873 19.31808397 53.63367614 27.87804197 53.52148438 38.15869141 C53.50003512 40.49617227 53.52136731 42.830581 53.546875 45.16796875 C53.56911165 56.62212853 52.03007807 65.7460287 43.921875 74.3046875 C38.31068328 79.25439726 34.5986479 80 27 80 C27 61.85 27 43.7 27 25 C18.09 25 9.18 25 0 25 C0 16.75 0 8.5 0 0 Z " fill="#5B8DD2" transform="translate(105,51)"/>
<path d="M0 0 C0 18.48 0 36.96 0 56 C9.24 56 18.48 56 28 56 C28 64.25 28 72.5 28 81 C23.44574119 81.09231606 18.8947844 81.17179505 14.34033203 81.21972656 C12.79432113 81.23972503 11.24838473 81.26693331 9.70263672 81.30175781 C-0.17946359 81.51866641 -7.27135796 81.45561047 -15.390625 75.140625 C-16.00421875 74.51671875 -16.6178125 73.8928125 -17.25 73.25 C-17.87390625 72.63640625 -18.4978125 72.0228125 -19.140625 71.390625 C-24.12420077 64.98317044 -25.60761386 59.35084058 -25.53125 51.3125 C-25.5350769 50.41055908 -25.53890381 49.50861816 -25.54284668 48.5793457 C-25.54555351 46.68341955 -25.53827899 44.78745526 -25.52148438 42.89160156 C-25.50005653 40.00760781 -25.52132752 37.12610478 -25.546875 34.2421875 C-25.54423151 32.39061956 -25.53910608 30.53905316 -25.53125 28.6875 C-25.53934692 27.83518799 -25.54744385 26.98287598 -25.55578613 26.10473633 C-25.44720526 19.09103635 -23.51069327 13.88196029 -18.88671875 8.57421875 C-12.7044686 3.27044109 -8.41830678 0 0 0 Z " fill="#F566AF" transform="translate(47,49)"/>
<path d="M0 0 C0.83343933 -0.00902847 1.66687866 -0.01805695 2.52557373 -0.02735901 C4.28377723 -0.04181515 6.04203395 -0.05073667 7.80029297 -0.05444336 C10.46285832 -0.06631035 13.12308107 -0.11551355 15.78515625 -0.16601562 C27.31231917 -0.2764419 35.30755859 0.80254469 44.171875 8.74609375 C48.99405448 13.98907663 50.234375 18.09641038 50.234375 25.37109375 C32.084375 25.37109375 13.934375 25.37109375 -4.765625 25.37109375 C-4.765625 34.61109375 -4.765625 43.85109375 -4.765625 53.37109375 C-13.015625 53.37109375 -21.265625 53.37109375 -29.765625 53.37109375 C-29.90420151 48.54914454 -30.02334655 43.73422761 -30.09521484 38.91186523 C-30.12519742 37.27555815 -30.16599933 35.63940918 -30.21826172 34.00366211 C-30.73284418 17.47143928 -30.73284418 17.47143928 -25.36962891 10.98950195 C-21.51497227 7.10022968 -21.51497227 7.10022968 -19.265625 5.43359375 C-18.5540625 4.88832031 -17.8425 4.34304687 -17.109375 3.78125 C-11.56034096 0.44258119 -6.29729057 0.0427075 0 0 Z " fill="#F366AF" transform="translate(79.765625,22.62890625)"/>
<path d="M0 0 C59.4 0 118.8 0 180 0 C180 59.4 180 118.8 180 180 C120.6 180 61.2 180 0 180 C0 120.6 0 61.2 0 0 Z M4 4 C1.52888593 30.89915 0.51475324 57.60001645 0.60888672 84.60913086 C0.62598849 89.5716978 0.61580547 94.53378165 0.59852982 99.49633217 C0.52356206 125.13383934 1.58109691 150.4754902 4 176 C30.29011448 181.47113912 59.28876589 179.2186551 86.04322052 179.24631882 C88.5773926 179.24993212 91.11152992 179.25721687 93.64569092 179.26541138 C121.09012324 179.34330622 148.69416711 179.02153317 176 176 C181.79076353 90.37346563 181.79076353 90.37346563 176 5 C173.94734156 2.94734156 169.72377322 3.6054928 166.89453125 3.47363281 C166.04513977 3.43123726 165.19574829 3.38884171 164.32061768 3.34516144 C161.48486352 3.20734994 158.64880529 3.07906449 155.8125 2.953125 C154.8323996 2.90875557 153.85229919 2.86438614 152.84249878 2.81867218 C132.15319478 1.89994125 111.48586388 1.68976765 90.77880859 1.73925781 C85.94181915 1.75071575 81.10504861 1.74382938 76.26806641 1.73235321 C52.11092868 1.68419578 28.10111738 2.32886654 4 4 Z " fill="#F7F9FB" transform="translate(0,0)"/>
</svg>
